<mxfile host="app.diagrams.net" modified="2021-09-27T12:29:05.822Z" agent="5.0 (Windows NT 10.0; Win64; x64) AppleWebKit/537.36 (KHTML, like Gecko) Chrome/93.0.4577.82 Safari/537.36 Edg/93.0.961.52" etag="XmSyOaLGhPZUECp9rL6t" version="15.0.6" type="github">
  <diagram id="PKd7tvd5U7KR2GySNECp" name="Page-1">
    <mxGraphModel dx="748" dy="408" grid="0" gridSize="10" guides="1" tooltips="1" connect="1" arrows="1" fold="1" page="1" pageScale="1" pageWidth="500" pageHeight="370" math="0" shadow="0">
      <root>
        <mxCell id="0" />
        <mxCell id="1" parent="0" />
        <mxCell id="1ls5iuWgq6ZgI9DzvMhG-1" style="edgeStyle=orthogonalEdgeStyle;rounded=0;orthogonalLoop=1;jettySize=auto;html=1;exitX=0.25;exitY=1;exitDx=0;exitDy=0;entryX=0.5;entryY=0;entryDx=0;entryDy=0;" parent="1" source="1ls5iuWgq6ZgI9DzvMhG-3" target="1ls5iuWgq6ZgI9DzvMhG-4" edge="1">
          <mxGeometry relative="1" as="geometry" />
        </mxCell>
        <mxCell id="1ls5iuWgq6ZgI9DzvMhG-2" style="edgeStyle=orthogonalEdgeStyle;rounded=0;orthogonalLoop=1;jettySize=auto;html=1;exitX=0.75;exitY=1;exitDx=0;exitDy=0;entryX=0.5;entryY=0;entryDx=0;entryDy=0;" parent="1" source="1ls5iuWgq6ZgI9DzvMhG-3" target="1ls5iuWgq6ZgI9DzvMhG-9" edge="1">
          <mxGeometry relative="1" as="geometry" />
        </mxCell>
        <mxCell id="1ls5iuWgq6ZgI9DzvMhG-3" value="&lt;font style=&quot;font-size: 14px&quot;&gt;&lt;font face=&quot;Verdana&quot;&gt;&lt;b&gt;[&lt;/b&gt;是情感子句吗&lt;/font&gt;&lt;span style=&quot;font-family: &amp;#34;verdana&amp;#34;&quot;&gt;&amp;nbsp;&lt;/span&gt;&lt;b style=&quot;font-family: &amp;#34;verdana&amp;#34;&quot;&gt;;&lt;/b&gt;&lt;span style=&quot;font-family: &amp;#34;verdana&amp;#34;&quot;&gt;&amp;nbsp;&lt;b&gt;c&lt;sub&gt;i&lt;/sub&gt;]&lt;/b&gt;&lt;/span&gt;&lt;/font&gt;" style="rounded=1;whiteSpace=wrap;html=1;fillColor=#dae8fc;strokeColor=#6c8ebf;" parent="1" vertex="1">
          <mxGeometry x="98.63" y="9" width="368" height="30" as="geometry" />
        </mxCell>
        <mxCell id="1ls5iuWgq6ZgI9DzvMhG-4" value="结束" style="rounded=1;whiteSpace=wrap;html=1;" parent="1" vertex="1">
          <mxGeometry x="155.5" y="77" width="81" height="18" as="geometry" />
        </mxCell>
        <mxCell id="1ls5iuWgq6ZgI9DzvMhG-5" style="edgeStyle=orthogonalEdgeStyle;rounded=0;orthogonalLoop=1;jettySize=auto;html=1;exitX=0.25;exitY=1;exitDx=0;exitDy=0;entryX=0.5;entryY=0;entryDx=0;entryDy=0;" parent="1" source="1ls5iuWgq6ZgI9DzvMhG-7" target="1ls5iuWgq6ZgI9DzvMhG-10" edge="1">
          <mxGeometry relative="1" as="geometry" />
        </mxCell>
        <mxCell id="1ls5iuWgq6ZgI9DzvMhG-6" style="edgeStyle=orthogonalEdgeStyle;rounded=0;orthogonalLoop=1;jettySize=auto;html=1;exitX=0.75;exitY=1;exitDx=0;exitDy=0;" parent="1" source="1ls5iuWgq6ZgI9DzvMhG-7" target="1ls5iuWgq6ZgI9DzvMhG-12" edge="1">
          <mxGeometry relative="1" as="geometry" />
        </mxCell>
        <mxCell id="1ls5iuWgq6ZgI9DzvMhG-7" value="&lt;font style=&quot;font-size: 14px&quot; face=&quot;Verdana&quot;&gt;&lt;b&gt;[&lt;/b&gt;&amp;nbsp;是&amp;nbsp;&lt;b&gt;c&lt;sub&gt;i&lt;/sub&gt;&lt;/b&gt;&amp;nbsp;对应的原因子句吗&lt;b&gt;;&lt;/b&gt; &lt;b&gt;c&lt;sub&gt;j&lt;/sub&gt;&amp;nbsp;]&lt;/b&gt;&lt;/font&gt;" style="rounded=1;whiteSpace=wrap;html=1;fillColor=#d5e8d4;strokeColor=#82b366;" parent="1" vertex="1">
          <mxGeometry x="100" y="113" width="368" height="30" as="geometry" />
        </mxCell>
        <mxCell id="1ls5iuWgq6ZgI9DzvMhG-8" style="edgeStyle=orthogonalEdgeStyle;rounded=0;orthogonalLoop=1;jettySize=auto;html=1;exitX=0.5;exitY=1;exitDx=0;exitDy=0;entryX=0.75;entryY=0;entryDx=0;entryDy=0;" parent="1" source="1ls5iuWgq6ZgI9DzvMhG-9" target="1ls5iuWgq6ZgI9DzvMhG-7" edge="1">
          <mxGeometry relative="1" as="geometry" />
        </mxCell>
        <mxCell id="1ls5iuWgq6ZgI9DzvMhG-9" value="&lt;font style=&quot;font-size: 14px&quot;&gt;情感子句 c&lt;sub&gt;i&lt;/sub&gt;&lt;/font&gt;" style="rounded=1;whiteSpace=wrap;html=1;fillColor=#fad7ac;strokeColor=#b46504;" parent="1" vertex="1">
          <mxGeometry x="313" y="73" width="122.5" height="26" as="geometry" />
        </mxCell>
        <mxCell id="1ls5iuWgq6ZgI9DzvMhG-10" value="结束" style="rounded=1;whiteSpace=wrap;html=1;" parent="1" vertex="1">
          <mxGeometry x="153" y="180" width="81" height="18" as="geometry" />
        </mxCell>
        <mxCell id="1ls5iuWgq6ZgI9DzvMhG-11" style="edgeStyle=orthogonalEdgeStyle;rounded=0;orthogonalLoop=1;jettySize=auto;html=1;exitX=0.5;exitY=1;exitDx=0;exitDy=0;entryX=0.75;entryY=0;entryDx=0;entryDy=0;dashed=1;endArrow=block;endFill=0;" parent="1" source="1ls5iuWgq6ZgI9DzvMhG-12" target="1ls5iuWgq6ZgI9DzvMhG-14" edge="1">
          <mxGeometry relative="1" as="geometry" />
        </mxCell>
        <mxCell id="1ls5iuWgq6ZgI9DzvMhG-12" value="&lt;font style=&quot;font-size: 14px&quot;&gt;候选情感-原因对 (c&lt;sub&gt;i&lt;/sub&gt;, c&lt;sub&gt;j&lt;/sub&gt;)&lt;/font&gt;" style="rounded=1;whiteSpace=wrap;html=1;fillColor=#fad7ac;strokeColor=#b46504;" parent="1" vertex="1">
          <mxGeometry x="301" y="176" width="151" height="26" as="geometry" />
        </mxCell>
        <mxCell id="1ls5iuWgq6ZgI9DzvMhG-13" style="edgeStyle=orthogonalEdgeStyle;rounded=0;orthogonalLoop=1;jettySize=auto;html=1;entryX=1;entryY=0.5;entryDx=0;entryDy=0;dashed=1;endArrow=open;endFill=0;fillColor=#e1d5e7;strokeColor=#9673a6;" parent="1" source="1ls5iuWgq6ZgI9DzvMhG-14" target="1ls5iuWgq6ZgI9DzvMhG-9" edge="1">
          <mxGeometry relative="1" as="geometry">
            <Array as="points">
              <mxPoint x="285" y="276" />
              <mxPoint x="482" y="276" />
              <mxPoint x="482" y="86" />
            </Array>
          </mxGeometry>
        </mxCell>
        <mxCell id="1ls5iuWgq6ZgI9DzvMhG-14" value="&lt;font style=&quot;font-size: 14px&quot; face=&quot;Verdana&quot;&gt;&lt;b&gt;[&lt;/b&gt;&amp;nbsp;是&amp;nbsp;&lt;b&gt;c&lt;sub&gt;j&lt;/sub&gt;&lt;/b&gt;&amp;nbsp;对应的情感子句吗&lt;b&gt;;&lt;/b&gt; &lt;b&gt;c&lt;sub&gt;i&lt;/sub&gt;&amp;nbsp;]&lt;/b&gt;&lt;/font&gt;" style="rounded=1;whiteSpace=wrap;html=1;fillColor=#e1d5e7;strokeColor=#9673a6;" parent="1" vertex="1">
          <mxGeometry x="101.63" y="219" width="368" height="30" as="geometry" />
        </mxCell>
        <mxCell id="1ls5iuWgq6ZgI9DzvMhG-15" value="&lt;b&gt;第一跳&lt;/b&gt;" style="text;html=1;strokeColor=none;fillColor=none;align=center;verticalAlign=middle;whiteSpace=wrap;rounded=0;" parent="1" vertex="1">
          <mxGeometry x="1.6300000000000026" y="14" width="97" height="20" as="geometry" />
        </mxCell>
        <mxCell id="1ls5iuWgq6ZgI9DzvMhG-16" value="&lt;b&gt;第二跳&lt;/b&gt;" style="text;html=1;strokeColor=none;fillColor=none;align=center;verticalAlign=middle;whiteSpace=wrap;rounded=0;" parent="1" vertex="1">
          <mxGeometry x="1.38" y="118" width="100.25" height="20" as="geometry" />
        </mxCell>
        <mxCell id="1ls5iuWgq6ZgI9DzvMhG-17" value="&lt;b&gt;第三跳&lt;/b&gt;" style="text;html=1;strokeColor=none;fillColor=none;align=center;verticalAlign=middle;whiteSpace=wrap;rounded=0;" parent="1" vertex="1">
          <mxGeometry x="2.25" y="224" width="98.5" height="20" as="geometry" />
        </mxCell>
        <mxCell id="1ls5iuWgq6ZgI9DzvMhG-18" value="&lt;b&gt;否&lt;/b&gt;" style="text;html=1;strokeColor=none;fillColor=none;align=center;verticalAlign=middle;whiteSpace=wrap;rounded=0;" parent="1" vertex="1">
          <mxGeometry x="201" y="151" width="40" height="20" as="geometry" />
        </mxCell>
        <mxCell id="1ls5iuWgq6ZgI9DzvMhG-19" value="&lt;b&gt;是&lt;/b&gt;" style="text;html=1;strokeColor=none;fillColor=none;align=center;verticalAlign=middle;whiteSpace=wrap;rounded=0;" parent="1" vertex="1">
          <mxGeometry x="384" y="151" width="40" height="20" as="geometry" />
        </mxCell>
        <mxCell id="1ls5iuWgq6ZgI9DzvMhG-20" value="&lt;b&gt;反思机制&lt;/b&gt;" style="text;html=1;strokeColor=none;fillColor=none;align=center;verticalAlign=middle;whiteSpace=wrap;rounded=0;" parent="1" vertex="1">
          <mxGeometry x="376.63" y="257" width="54.75" height="20" as="geometry" />
        </mxCell>
        <mxCell id="1ls5iuWgq6ZgI9DzvMhG-21" value="&lt;b&gt;否&lt;/b&gt;" style="text;html=1;strokeColor=none;fillColor=none;align=center;verticalAlign=middle;whiteSpace=wrap;rounded=0;" parent="1" vertex="1">
          <mxGeometry x="201" y="48" width="40" height="20" as="geometry" />
        </mxCell>
        <mxCell id="1ls5iuWgq6ZgI9DzvMhG-22" value="&lt;b&gt;是&lt;/b&gt;" style="text;html=1;strokeColor=none;fillColor=none;align=center;verticalAlign=middle;whiteSpace=wrap;rounded=0;" parent="1" vertex="1">
          <mxGeometry x="384" y="48" width="40" height="20" as="geometry" />
        </mxCell>
      </root>
    </mxGraphModel>
  </diagram>
</mxfile>
